<svg width="211" height="55" viewBox="0 0 211 55" fill="none" xmlns="http://www.w3.org/2000/svg">
<g id="Logo">
<g id="Vector">
<path d="M1.12985 28.0964L5.1971 26.6661C5.40047 28.0964 5.94277 29.2714 6.824 30.1909C7.73913 31.1104 8.60343 31.6723 9.41688 31.8767L10.5862 32.1832V36.321C7.60356 36.321 5.09542 35.0439 3.0618 32.4897C1.80773 30.8891 1.16375 29.4246 1.12985 28.0964ZM1.53658 10.0636C1.53658 6.38555 3.11264 3.62699 6.26476 1.78796C7.82387 0.868435 9.26435 0.408675 10.5862 0.408675V4.5976C9.39993 4.73382 8.28144 5.36387 7.23073 6.48772C6.2817 7.54347 5.80719 8.75247 5.80719 10.1147C5.80719 12.1922 7.29852 13.7587 10.2812 14.8145C11.0268 15.0529 12.1623 15.3764 13.6875 15.7851C15.2805 16.2278 16.399 16.5684 17.043 16.8068C20.0934 18.0669 22.0423 19.7867 22.8896 21.9663C23.3303 23.0561 23.5506 24.2821 23.5506 25.6444C23.5506 28.6073 22.4151 31.1785 20.1443 33.3581C18.0767 35.3334 15.7381 36.321 13.1282 36.321V32.1832C14.5179 32.1151 15.8567 31.451 17.1447 30.1909C18.4326 28.8627 19.0935 27.3472 19.1274 25.6444C19.1274 23.2604 17.4836 21.5236 14.1959 20.4338C13.4841 20.1954 12.3995 19.9059 10.9421 19.5653C9.38298 19.1907 8.33228 18.8842 7.78998 18.6458C4.90901 17.4538 3.0618 15.8873 2.24835 13.946C1.77383 12.8222 1.53658 11.5281 1.53658 10.0636ZM13.1282 4.5976V0.408675C16.077 0.408675 18.5343 1.71984 20.5001 4.34218C21.4831 5.67037 22.0254 6.86234 22.127 7.91809L18.0089 9.29737C17.5344 6.91343 16.1787 5.39792 13.9417 4.75085C13.3994 4.64868 13.1282 4.5976 13.1282 4.5976Z" fill="#3E65FB"/>
<path d="M26.5502 29.7311V27.2791C26.5502 25.0654 27.4145 23.4478 29.143 22.4261C29.6853 22.1536 31.7698 21.5065 35.3964 20.4849C39.4298 19.361 41.4465 18.3734 41.4465 17.522V16.5514C41.4465 15.734 41.2431 14.9848 40.8364 14.3036C40.0568 13.0095 38.8706 12.3624 37.2775 12.3624V8.42893C39.6162 8.42893 41.5651 9.17817 43.1242 10.6766C44.785 12.3113 45.6154 14.2185 45.6154 16.3981V30.3952C45.6493 31.451 46.1069 32.0129 46.9881 32.081V36.1167C45.2934 36.1167 43.9207 35.5207 42.87 34.3287C41.5143 35.4867 39.6501 36.0826 37.2775 36.1167V32.1321C37.5826 32.1321 37.9046 32.1151 38.2435 32.081C40.3788 31.7405 41.4465 30.4634 41.4465 28.2497V22.375C40.5652 22.8518 38.8706 23.3967 36.3624 24.0097C33.1425 24.793 31.3292 25.3719 30.9225 25.7466C30.5496 26.0871 30.3463 26.632 30.3124 27.3813V28.7605C30.3463 30.9401 31.8376 32.064 34.7864 32.1321V36.1167C32.6849 36.1167 30.8547 35.5718 29.2956 34.482C27.4653 33.1879 26.5502 31.6042 26.5502 29.7311ZM26.9061 15.3764C26.9061 13.7417 27.55 12.2773 28.838 10.9832C30.4988 9.28034 32.4985 8.42893 34.8372 8.42893V12.4135C34.1932 12.4135 33.5831 12.5497 33.0069 12.8222C31.4478 13.5714 30.6683 14.8996 30.6683 16.8068L26.9061 15.3764Z" fill="#3E65FB"/>
<path d="M49.8352 14.9677V10.7788H53.1907V7.81592C53.1907 5.90877 53.8177 4.1719 55.0718 2.60531C56.4614 0.970604 58.2578 0.136225 60.4609 0.102169H62.342L61.376 4.24001H60.41C58.4781 4.34218 57.4952 5.53415 57.4613 7.81592V10.8299L60.9184 10.7788V14.9677H57.4613V36.1678H53.1907V14.9677H49.8352Z" fill="#3E65FB"/>
<path d="M64.884 28.6073V15.9383C64.9179 14.3718 65.6636 12.8222 67.121 11.2897C68.8835 9.48468 71.0188 8.56516 73.5269 8.5311V12.5668C71.9 12.5668 70.629 13.282 69.7139 14.7123C69.341 15.3253 69.1546 15.8873 69.1546 16.3981V19.8718H80.5429V16.3981C80.5429 14.8656 79.7634 13.7417 78.2043 13.0265C77.4925 12.686 76.7638 12.5157 76.0181 12.5157V8.5311C78.3568 8.5311 80.4412 9.36548 82.2715 11.0342C83.7967 12.4987 84.5763 14.1163 84.6102 15.8873V24.0097H69.1546V28.6073C69.1546 29.5609 69.6969 30.4463 70.7815 31.2637C71.6628 31.8767 72.5948 32.1832 73.5778 32.1832V36.1678C70.4934 36.1678 68.07 34.9077 66.3075 32.3875C65.3585 31.0593 64.884 29.7993 64.884 28.6073ZM76.0181 36.1678V32.1321C78.0517 32.1321 79.577 31.2466 80.5938 29.4757C80.7971 29.1011 80.9497 28.7435 81.0513 28.4029L84.661 29.7311C84.0509 32.081 82.6613 33.852 80.4921 35.0439C79.1024 35.7932 77.6111 36.1678 76.0181 36.1678Z" fill="#3E65FB"/>
<path d="M87.9657 28.0964L92.0329 26.6661C92.2363 28.0964 92.7786 29.2714 93.6598 30.1909C94.5749 31.1104 95.4392 31.6723 96.2527 31.8767L97.422 32.1832V36.321C94.4394 36.321 91.9312 35.0439 89.8976 32.4897C88.6435 30.8891 87.9996 29.4246 87.9657 28.0964ZM88.3724 10.0636C88.3724 6.38555 89.9484 3.62699 93.1006 1.78796C94.6597 0.868435 96.1002 0.408675 97.422 0.408675V4.5976C96.2357 4.73382 95.1172 5.36387 94.0665 6.48772C93.1175 7.54347 92.643 8.75247 92.643 10.1147C92.643 12.1922 94.1343 13.7587 97.117 14.8145C97.8626 15.0529 98.9981 15.3764 100.523 15.7851C102.116 16.2278 103.235 16.5684 103.879 16.8068C106.929 18.0669 108.878 19.7867 109.725 21.9663C110.166 23.0561 110.386 24.2821 110.386 25.6444C110.386 28.6073 109.251 31.1785 106.98 33.3581C104.913 35.3334 102.574 36.321 99.9641 36.321V32.1832C101.354 32.1151 102.692 31.451 103.98 30.1909C105.268 28.8627 105.929 27.3472 105.963 25.6444C105.963 23.2604 104.319 21.5236 101.032 20.4338C100.32 20.1954 99.2353 19.9059 97.7779 19.5653C96.2188 19.1907 95.1681 18.8842 94.6258 18.6458C91.7448 17.4538 89.8976 15.8873 89.0842 13.946C88.6096 12.8222 88.3724 11.5281 88.3724 10.0636ZM99.9641 4.5976V0.408675C102.913 0.408675 105.37 1.71984 107.336 4.34218C108.319 5.67037 108.861 6.86234 108.963 7.91809L104.845 9.29737C104.37 6.91343 103.014 5.39792 100.778 4.75085C100.235 4.64868 99.9641 4.5976 99.9641 4.5976Z" fill="#3E65FB"/>
<path d="M113.691 28.6073V15.9383C113.725 14.3718 114.471 12.8222 115.928 11.2897C117.69 9.48468 119.826 8.56516 122.334 8.5311V12.5668C120.707 12.5668 119.436 13.282 118.521 14.7123C118.148 15.3253 117.962 15.8873 117.962 16.3981V19.8718H129.35V16.3981C129.35 14.8656 128.57 13.7417 127.011 13.0265C126.299 12.686 125.571 12.5157 124.825 12.5157V8.5311C127.164 8.5311 129.248 9.36548 131.079 11.0342C132.604 12.4987 133.383 14.1163 133.417 15.8873V24.0097H117.962V28.6073C117.962 29.5609 118.504 30.4463 119.589 31.2637C120.47 31.8767 121.402 32.1832 122.385 32.1832V36.1678C119.3 36.1678 116.877 34.9077 115.115 32.3875C114.166 31.0593 113.691 29.7993 113.691 28.6073ZM124.825 36.1678V32.1321C126.859 32.1321 128.384 31.2466 129.401 29.4757C129.604 29.1011 129.757 28.7435 129.858 28.4029L133.468 29.7311C132.858 32.081 131.468 33.852 129.299 35.0439C127.909 35.7932 126.418 36.1678 124.825 36.1678Z" fill="#3E65FB"/>
<path d="M137.484 28.6073V16.0916C137.484 14.8656 137.891 13.6225 138.705 12.3624C140.332 9.80821 142.772 8.5311 146.026 8.5311V12.6179C145.043 12.6179 144.162 12.8733 143.382 13.3841C142.263 14.1674 141.704 15.104 141.704 16.1938V28.6073C141.704 29.0841 141.84 29.5609 142.111 30.0376C142.891 31.3999 144.195 32.081 146.026 32.081V36.1678C143.348 36.1678 141.196 35.2993 139.569 33.5625C138.179 32.064 137.484 30.4123 137.484 28.6073ZM148.313 12.6689V8.5311C150.076 8.5311 151.669 9.05897 153.093 10.1147C155.126 11.6813 156.143 13.7077 156.143 16.1938L152.177 17.7263V16.5003C152.143 15.9213 152.008 15.3594 151.771 14.8145C151.127 13.3841 149.974 12.6689 148.313 12.6689ZM148.313 36.2189V32.081C148.856 32.081 149.381 31.9959 149.89 31.8256C151.618 31.2466 152.567 30.0036 152.737 28.0964L152.787 27.9943C152.787 27.9262 152.787 27.858 152.787 27.7899C152.787 27.6878 152.787 27.6026 152.787 27.5345C152.787 27.4664 152.787 27.3813 152.787 27.2791C152.787 27.1769 152.787 27.1088 152.787 27.0747C152.787 27.0407 152.787 27.0066 152.787 26.9726L156.753 28.454C156.753 30.259 156.041 31.9278 154.618 33.4603C152.821 35.3334 150.72 36.2529 148.313 36.2189Z" fill="#3E65FB"/>
<path d="M160.159 36.1678V8.5311H164.481V12.3113C165.362 10.8129 166.684 9.70604 168.446 8.99086C169.395 8.61624 170.327 8.42893 171.243 8.42893H172.158L171.141 12.6179C169.277 12.6519 167.616 13.6566 166.159 15.6318C165.04 17.1984 164.481 18.8161 164.481 20.4849V36.1678H160.159Z" fill="#3E65FB"/>
<path d="M174.903 28.6073V15.9383C174.937 14.3718 175.683 12.8222 177.14 11.2897C178.903 9.48468 181.038 8.56516 183.546 8.5311V12.5668C181.919 12.5668 180.648 13.282 179.733 14.7123C179.36 15.3253 179.174 15.8873 179.174 16.3981V19.8718H190.562V16.3981C190.562 14.8656 189.783 13.7417 188.223 13.0265C187.512 12.686 186.783 12.5157 186.037 12.5157V8.5311C188.376 8.5311 190.46 9.36548 192.291 11.0342C193.816 12.4987 194.595 14.1163 194.629 15.8873V24.0097H179.174V28.6073C179.174 29.5609 179.716 30.4463 180.801 31.2637C181.682 31.8767 182.614 32.1832 183.597 32.1832V36.1678C180.513 36.1678 178.089 34.9077 176.327 32.3875C175.378 31.0593 174.903 29.7993 174.903 28.6073ZM186.037 36.1678V32.1321C188.071 32.1321 189.596 31.2466 190.613 29.4757C190.816 29.1011 190.969 28.7435 191.07 28.4029L194.68 29.7311C194.07 32.081 192.68 33.852 190.511 35.0439C189.122 35.7932 187.63 36.1678 186.037 36.1678Z" fill="#3E65FB"/>
<path d="M197.578 12.9754V8.83761H200.934V0H205.255V8.83761H208.509V13.0265H205.255V27.6878C205.255 30.1058 206.238 31.451 208.204 31.7234C208.577 31.7915 208.949 31.8256 209.322 31.8256H210.034L211 36.1678H209.17C205.001 36.1337 202.442 34.5671 201.493 31.468C201.154 30.3101 200.984 28.8797 200.984 27.1769L200.934 12.9754H197.578Z" fill="#3E65FB"/>
<path d="M3.30518 46.3722L0.958941 52.8626H0L2.70158 45.7412H3.31979L3.30518 46.3722ZM5.27174 52.8626L2.92063 46.3722L2.90603 45.7412H3.52423L6.23555 52.8626H5.27174ZM5.15005 50.2263V50.9991H1.16825V50.2263H5.15005Z" fill="white"/>
<path d="M12.5879 51.4589C12.5879 51.3284 12.5587 51.2078 12.5003 51.0969C12.4451 50.9828 12.3299 50.8801 12.1547 50.7888C11.9827 50.6942 11.7231 50.6127 11.3759 50.5442C11.0838 50.4823 10.8193 50.4089 10.5824 50.3241C10.3488 50.2394 10.1492 50.1367 9.9837 50.016C9.82144 49.8954 9.6965 49.7535 9.60888 49.5905C9.52126 49.4274 9.47745 49.2367 9.47745 49.0182C9.47745 48.8095 9.52288 48.6123 9.61375 48.4264C9.70786 48.2406 9.83929 48.0759 10.008 47.9324C10.18 47.7889 10.3861 47.6764 10.6262 47.5949C10.8664 47.5134 11.1341 47.4727 11.4294 47.4727C11.8513 47.4727 12.2115 47.5476 12.51 47.6976C12.8086 47.8476 13.0374 48.0482 13.1964 48.2992C13.3554 48.5471 13.4349 48.8226 13.4349 49.1258H12.5344C12.5344 48.9791 12.4906 48.8373 12.403 48.7003C12.3186 48.5601 12.1936 48.4443 12.0281 48.353C11.8659 48.2617 11.6663 48.2161 11.4294 48.2161C11.1795 48.2161 10.9767 48.2552 10.8209 48.3335C10.6684 48.4085 10.5565 48.5047 10.4851 48.6221C10.4169 48.7394 10.3828 48.8633 10.3828 48.9938C10.3828 49.0916 10.3991 49.1796 10.4315 49.2579C10.4672 49.3329 10.5289 49.403 10.6165 49.4682C10.7041 49.5302 10.8274 49.5889 10.9864 49.6443C11.1455 49.6997 11.3483 49.7551 11.5949 49.8106C12.0265 49.9084 12.3819 50.0258 12.6609 50.1627C12.94 50.2997 13.1477 50.4676 13.284 50.6665C13.4203 50.8654 13.4885 51.1067 13.4885 51.3904C13.4885 51.6219 13.4398 51.8339 13.3424 52.0262C13.2483 52.2186 13.1104 52.3849 12.9287 52.5251C12.7502 52.6621 12.536 52.7697 12.2861 52.8479C12.0395 52.9229 11.762 52.9604 11.4537 52.9604C10.9897 52.9604 10.597 52.8773 10.2758 52.711C9.95449 52.5447 9.7111 52.3295 9.5456 52.0654C9.3801 51.8012 9.29735 51.5225 9.29735 51.229H10.2027C10.2157 51.4768 10.2871 51.6741 10.4169 51.8208C10.5467 51.9643 10.7057 52.067 10.894 52.1289C11.0822 52.1876 11.2688 52.217 11.4537 52.217C11.7004 52.217 11.9064 52.1844 12.0719 52.1192C12.2407 52.0539 12.3689 51.9643 12.4565 51.8502C12.5441 51.736 12.5879 51.6056 12.5879 51.4589Z" fill="white"/>
<path d="M16.8569 52.9604C16.4902 52.9604 16.1576 52.8985 15.859 52.7746C15.5637 52.6474 15.309 52.4697 15.0948 52.2414C14.8839 52.0132 14.7216 51.7425 14.608 51.4295C14.4944 51.1165 14.4377 50.7741 14.4377 50.4024V50.197C14.4377 49.7666 14.5009 49.3834 14.6275 49.0476C14.7541 48.7085 14.9261 48.4215 15.1435 48.1867C15.3609 47.952 15.6075 47.7743 15.8834 47.6536C16.1592 47.533 16.4448 47.4727 16.7401 47.4727C17.1165 47.4727 17.441 47.5379 17.7136 47.6683C17.9895 47.7987 18.215 47.9813 18.3902 48.2161C18.5655 48.4476 18.6953 48.7215 18.7797 49.0378C18.864 49.3508 18.9062 49.6932 18.9062 50.0649V50.4709H14.9731V49.7323H18.0057V49.6638C17.9927 49.4291 17.944 49.2008 17.8597 48.9791C17.7785 48.7574 17.6487 48.5748 17.4702 48.4313C17.2918 48.2878 17.0484 48.2161 16.7401 48.2161C16.5356 48.2161 16.3474 48.2601 16.1754 48.3482C16.0034 48.4329 15.8558 48.5601 15.7325 48.7297C15.6092 48.8992 15.5134 49.1063 15.4453 49.3508C15.3771 49.5954 15.3431 49.8774 15.3431 50.197V50.4024C15.3431 50.6535 15.3771 50.8899 15.4453 51.1116C15.5167 51.3301 15.6189 51.5225 15.7519 51.6888C15.8882 51.855 16.0521 51.9855 16.2436 52.08C16.4383 52.1746 16.659 52.2219 16.9056 52.2219C17.2236 52.2219 17.493 52.1567 17.7136 52.0262C17.9343 51.8958 18.1274 51.7214 18.2929 51.5029L18.8381 51.9382C18.7245 52.111 18.5801 52.2757 18.4049 52.4322C18.2296 52.5887 18.0138 52.7159 17.7574 52.8137C17.5043 52.9115 17.2041 52.9604 16.8569 52.9604Z" fill="white"/>
<path d="M22.0654 52.217C22.2796 52.217 22.4775 52.173 22.6592 52.0849C22.841 51.9969 22.9902 51.8762 23.1071 51.723C23.2239 51.5665 23.2904 51.3888 23.3066 51.1899H24.1634C24.1471 51.5029 24.0417 51.7947 23.847 52.0654C23.6555 52.3327 23.404 52.5496 23.0925 52.7159C22.7809 52.8789 22.4386 52.9604 22.0654 52.9604C21.6695 52.9604 21.3239 52.8903 21.0286 52.7501C20.7365 52.6099 20.4931 52.4175 20.2984 52.173C20.1069 51.9284 19.9625 51.648 19.8652 51.3317C19.7711 51.0122 19.724 50.6747 19.724 50.3193V50.1138C19.724 49.7584 19.7711 49.4226 19.8652 49.1063C19.9625 48.7867 20.1069 48.5047 20.2984 48.2601C20.4931 48.0156 20.7365 47.8232 21.0286 47.683C21.3239 47.5428 21.6695 47.4727 22.0654 47.4727C22.4775 47.4727 22.8377 47.5574 23.146 47.727C23.4543 47.8933 23.6961 48.1215 23.8713 48.4117C24.0498 48.6987 24.1471 49.0247 24.1634 49.3899H23.3066C23.2904 49.1715 23.2288 48.9742 23.1217 48.7981C23.0178 48.6221 22.875 48.4818 22.6933 48.3775C22.5148 48.2699 22.3055 48.2161 22.0654 48.2161C21.7895 48.2161 21.5575 48.2715 21.3693 48.3824C21.1843 48.49 21.0367 48.6367 20.9263 48.8226C20.8192 49.0052 20.7414 49.209 20.6927 49.434C20.6472 49.6557 20.6245 49.8823 20.6245 50.1138V50.3193C20.6245 50.5508 20.6472 50.779 20.6927 51.004C20.7381 51.229 20.8144 51.4328 20.9215 51.6154C21.0318 51.798 21.1795 51.9447 21.3644 52.0556C21.5526 52.1632 21.7863 52.217 22.0654 52.217Z" fill="white"/>
<path d="M28.3983 51.6398V47.5705H29.3037V52.8626H28.4421L28.3983 51.6398ZM28.5687 50.5247L28.9435 50.5149C28.9435 50.8671 28.9061 51.1931 28.8315 51.4931C28.7601 51.7898 28.6433 52.0474 28.481 52.2659C28.3188 52.4844 28.1062 52.6555 27.8434 52.7795C27.5805 52.9001 27.2609 52.9604 26.8844 52.9604C26.6281 52.9604 26.3928 52.9229 26.1786 52.8479C25.9677 52.7729 25.7859 52.6572 25.6334 52.5007C25.4809 52.3442 25.3624 52.1404 25.2781 51.8893C25.1969 51.6382 25.1564 51.3366 25.1564 50.9844V47.5705H26.0569V50.9942C26.0569 51.2323 26.0829 51.4295 26.1348 51.586C26.19 51.7393 26.263 51.8616 26.3538 51.9529C26.4479 52.0409 26.5518 52.1029 26.6654 52.1387C26.7822 52.1746 26.9023 52.1925 27.0256 52.1925C27.4085 52.1925 27.7119 52.1192 27.9358 51.9724C28.1598 51.8224 28.3204 51.6219 28.4178 51.3708C28.5184 51.1165 28.5687 50.8344 28.5687 50.5247Z" fill="white"/>
<path d="M31.5769 48.402V52.8626H30.6764V47.5705H31.5526L31.5769 48.402ZM33.2222 47.5411L33.2173 48.3824C33.1427 48.3661 33.0713 48.3563 33.0031 48.353C32.9382 48.3465 32.8636 48.3433 32.7792 48.3433C32.5715 48.3433 32.3882 48.3759 32.2292 48.4411C32.0702 48.5063 31.9355 48.5976 31.8252 48.715C31.7148 48.8324 31.6272 48.9726 31.5623 49.1356C31.5006 49.2954 31.4601 49.4715 31.4406 49.6638L31.1875 49.8106C31.1875 49.491 31.2183 49.191 31.28 48.9106C31.3449 48.6302 31.4439 48.3824 31.5769 48.1672C31.71 47.9487 31.8787 47.7792 32.0831 47.6585C32.2908 47.5346 32.5375 47.4727 32.823 47.4727C32.8879 47.4727 32.9626 47.4808 33.047 47.4971C33.1313 47.5102 33.1897 47.5248 33.2222 47.5411Z" fill="white"/>
<path d="M36.1428 52.9604C35.7761 52.9604 35.4435 52.8985 35.1449 52.7746C34.8496 52.6474 34.5949 52.4697 34.3807 52.2414C34.1698 52.0132 34.0075 51.7425 33.8939 51.4295C33.7804 51.1165 33.7236 50.7741 33.7236 50.4024V50.197C33.7236 49.7666 33.7868 49.3834 33.9134 49.0476C34.04 48.7085 34.212 48.4215 34.4294 48.1867C34.6468 47.952 34.8934 47.7743 35.1693 47.6536C35.4451 47.533 35.7307 47.4727 36.026 47.4727C36.4024 47.4727 36.727 47.5379 36.9995 47.6683C37.2754 47.7987 37.5009 47.9813 37.6762 48.2161C37.8514 48.4476 37.9812 48.7215 38.0656 49.0378C38.1499 49.3508 38.1921 49.6932 38.1921 50.0649V50.4709H34.259V49.7323H37.2916V49.6638C37.2786 49.4291 37.2299 49.2008 37.1456 48.9791C37.0644 48.7574 36.9346 48.5748 36.7562 48.4313C36.5777 48.2878 36.3343 48.2161 36.026 48.2161C35.8216 48.2161 35.6333 48.2601 35.4613 48.3482C35.2894 48.4329 35.1417 48.5601 35.0184 48.7297C34.8951 48.8992 34.7993 49.1063 34.7312 49.3508C34.663 49.5954 34.629 49.8774 34.629 50.197V50.4024C34.629 50.6535 34.663 50.8899 34.7312 51.1116C34.8026 51.3301 34.9048 51.5225 35.0379 51.6888C35.1741 51.855 35.338 51.9855 35.5295 52.08C35.7242 52.1746 35.9449 52.2219 36.1915 52.2219C36.5095 52.2219 36.7789 52.1567 36.9995 52.0262C37.2202 51.8958 37.4133 51.7214 37.5788 51.5029L38.124 51.9382C38.0104 52.111 37.866 52.2757 37.6908 52.4322C37.5155 52.5887 37.2997 52.7159 37.0434 52.8137C36.7902 52.9115 36.4901 52.9604 36.1428 52.9604Z" fill="white"/>
<path d="M43.0501 51.9235L44.4033 47.5705H44.9972L44.8804 48.4362L43.5028 52.8626H42.9236L43.0501 51.9235ZM42.1399 47.5705L43.2935 51.9724L43.3763 52.8626H42.7678L41.2393 47.5705H42.1399ZM46.292 51.9382L47.3921 47.5705H48.2878L46.7593 52.8626H46.1557L46.292 51.9382ZM45.1286 47.5705L46.4527 51.8502L46.6036 52.8626H46.0292L44.6127 48.4264L44.4958 47.5705H45.1286Z" fill="white"/>
<path d="M52.3183 51.9578V49.2334C52.3183 49.0247 52.2761 48.8438 52.1917 48.6905C52.1106 48.534 51.9873 48.4134 51.8218 48.3286C51.6562 48.2438 51.4518 48.2014 51.2084 48.2014C50.9813 48.2014 50.7817 48.2406 50.6097 48.3188C50.4409 48.3971 50.3079 48.4998 50.2105 48.6269C50.1164 48.7541 50.0694 48.8911 50.0694 49.0378H49.1688C49.1688 48.8487 49.2175 48.6612 49.3149 48.4753C49.4122 48.2895 49.5518 48.1215 49.7335 47.9715C49.9185 47.8183 50.1391 47.6976 50.3955 47.6096C50.6551 47.5183 50.9439 47.4727 51.262 47.4727C51.6449 47.4727 51.9824 47.5379 52.2745 47.6683C52.5698 47.7987 52.8002 47.996 52.9657 48.2601C53.1344 48.521 53.2188 48.8487 53.2188 49.2432V51.7083C53.2188 51.8844 53.2334 52.0719 53.2626 52.2708C53.2951 52.4697 53.3421 52.6409 53.4038 52.7843V52.8626H52.4643C52.4189 52.7583 52.3832 52.6197 52.3572 52.4469C52.3312 52.2708 52.3183 52.1077 52.3183 51.9578ZM52.474 49.6541L52.4838 50.2899H51.5735C51.3171 50.2899 51.0883 50.3111 50.8871 50.3535C50.686 50.3926 50.5172 50.4529 50.3809 50.5345C50.2446 50.616 50.1408 50.7187 50.0694 50.8426C49.998 50.9632 49.9623 51.1051 49.9623 51.2681C49.9623 51.4344 49.9996 51.586 50.0742 51.723C50.1489 51.8599 50.2608 51.9692 50.4101 52.0507C50.5626 52.1289 50.7492 52.1681 50.9699 52.1681C51.2457 52.1681 51.4891 52.1094 51.7001 51.992C51.911 51.8746 52.0781 51.7311 52.2014 51.5616C52.328 51.392 52.3961 51.2274 52.4059 51.0676L52.7904 51.5029C52.7677 51.6398 52.7061 51.7915 52.6055 51.9578C52.5049 52.1241 52.3702 52.2838 52.2014 52.4371C52.0359 52.5871 51.838 52.7126 51.6076 52.8137C51.3804 52.9115 51.124 52.9604 50.8385 52.9604C50.4815 52.9604 50.1684 52.8903 49.899 52.7501C49.6329 52.6099 49.4252 52.4224 49.2759 52.1876C49.1299 51.9496 49.0569 51.6839 49.0569 51.3904C49.0569 51.1067 49.1121 50.8573 49.2224 50.6421C49.3327 50.4236 49.4917 50.2426 49.6994 50.0992C49.9071 49.9524 50.157 49.8416 50.4491 49.7666C50.7411 49.6916 51.0673 49.6541 51.4275 49.6541H52.474Z" fill="white"/>
<path d="M56.0372 52.3148L57.5024 47.5705H58.4662L56.3536 53.6794C56.3049 53.8098 56.24 53.9501 56.1589 54.1C56.081 54.2533 55.9804 54.3984 55.8571 54.5353C55.7338 54.6723 55.5845 54.7832 55.4093 54.8679C55.2373 54.956 55.0312 55 54.7911 55C54.7197 55 54.6288 54.9902 54.5185 54.9707C54.4081 54.9511 54.3303 54.9348 54.2848 54.9217L54.28 54.1881C54.3059 54.1913 54.3465 54.1946 54.4016 54.1979C54.4601 54.2044 54.5006 54.2076 54.5233 54.2076C54.7278 54.2076 54.9014 54.1799 55.0442 54.1245C55.187 54.0723 55.307 53.9827 55.4044 53.8555C55.505 53.7316 55.591 53.5604 55.6624 53.3419L56.0372 52.3148ZM54.9614 47.5705L56.3293 51.679L56.5629 52.6327L55.9155 52.9653L53.9782 47.5705H54.9614Z" fill="white"/>
<path d="M63.957 47.5705V48.265H61.1094V47.5705H63.957ZM62.0732 46.2841H62.9737V51.5518C62.9737 51.7311 63.0013 51.8665 63.0565 51.9578C63.1116 52.0491 63.183 52.1094 63.2706 52.1387C63.3582 52.1681 63.4524 52.1827 63.553 52.1827C63.6276 52.1827 63.7055 52.1762 63.7866 52.1632C63.871 52.1469 63.9343 52.1338 63.9765 52.1241L63.9813 52.8626C63.9099 52.8854 63.8158 52.9066 63.699 52.9262C63.5854 52.949 63.4475 52.9604 63.2852 52.9604C63.0646 52.9604 62.8617 52.9164 62.6768 52.8284C62.4918 52.7403 62.3441 52.5936 62.2338 52.3882C62.1267 52.1795 62.0732 51.8991 62.0732 51.5469V46.2841Z" fill="white"/>
<path d="M64.6774 50.2752V50.1627C64.6774 49.7812 64.7326 49.4274 64.8429 49.1014C64.9532 48.772 65.1123 48.4867 65.3199 48.2454C65.5276 48.0009 65.7791 47.8118 66.0744 47.6781C66.3698 47.5411 66.7008 47.4727 67.0675 47.4727C67.4374 47.4727 67.77 47.5411 68.0653 47.6781C68.3639 47.8118 68.617 48.0009 68.8247 48.2454C69.0356 48.4867 69.1963 48.772 69.3066 49.1014C69.4169 49.4274 69.4721 49.7812 69.4721 50.1627V50.2752C69.4721 50.6567 69.4169 51.0105 69.3066 51.3366C69.1963 51.6627 69.0356 51.948 68.8247 52.1925C68.617 52.4338 68.3655 52.6229 68.0702 52.7599C67.7781 52.8936 67.4471 52.9604 67.0772 52.9604C66.7072 52.9604 66.3746 52.8936 66.0793 52.7599C65.784 52.6229 65.5309 52.4338 65.3199 52.1925C65.1123 51.948 64.9532 51.6627 64.8429 51.3366C64.7326 51.0105 64.6774 50.6567 64.6774 50.2752ZM65.5779 50.1627V50.2752C65.5779 50.5393 65.6088 50.7888 65.6704 51.0236C65.7321 51.2551 65.8246 51.4605 65.9479 51.6398C66.0744 51.8192 66.2318 51.961 66.42 52.0654C66.6083 52.1664 66.8273 52.217 67.0772 52.217C67.3238 52.217 67.5396 52.1664 67.7246 52.0654C67.9128 51.961 68.0686 51.8192 68.1919 51.6398C68.3152 51.4605 68.4077 51.2551 68.4694 51.0236C68.5343 50.7888 68.5667 50.5393 68.5667 50.2752V50.1627C68.5667 49.9019 68.5343 49.6557 68.4694 49.4242C68.4077 49.1894 68.3136 48.9824 68.187 48.803C68.0637 48.6204 67.9079 48.477 67.7197 48.3726C67.5348 48.2683 67.3173 48.2161 67.0675 48.2161C66.8208 48.2161 66.6034 48.2683 66.4152 48.3726C66.2302 48.477 66.0744 48.6204 65.9479 48.803C65.8246 48.9824 65.7321 49.1894 65.6704 49.4242C65.6088 49.6557 65.5779 49.9019 65.5779 50.1627Z" fill="white"/>
<path d="M76.1409 51.4589C76.1409 51.3284 76.1117 51.2078 76.0533 51.0969C75.9981 50.9828 75.8829 50.8801 75.7077 50.7888C75.5357 50.6942 75.2761 50.6127 74.9288 50.5442C74.6368 50.4823 74.3723 50.4089 74.1354 50.3241C73.9017 50.2394 73.7022 50.1367 73.5367 50.016C73.3744 49.8954 73.2495 49.7535 73.1618 49.5905C73.0742 49.4274 73.0304 49.2367 73.0304 49.0182C73.0304 48.8095 73.0758 48.6123 73.1667 48.4264C73.2608 48.2406 73.3922 48.0759 73.561 47.9324C73.733 47.7889 73.9391 47.6764 74.1792 47.5949C74.4193 47.5134 74.6871 47.4727 74.9824 47.4727C75.4042 47.4727 75.7645 47.5476 76.063 47.6976C76.3616 47.8476 76.5903 48.0482 76.7494 48.2992C76.9084 48.5471 76.9879 48.8226 76.9879 49.1258H76.0873C76.0873 48.9791 76.0435 48.8373 75.9559 48.7003C75.8715 48.5601 75.7466 48.4443 75.5811 48.353C75.4188 48.2617 75.2193 48.2161 74.9824 48.2161C74.7325 48.2161 74.5297 48.2552 74.3739 48.3335C74.2214 48.4085 74.1094 48.5047 74.038 48.6221C73.9699 48.7394 73.9358 48.8633 73.9358 48.9938C73.9358 49.0916 73.952 49.1796 73.9845 49.2579C74.0202 49.3329 74.0818 49.403 74.1695 49.4682C74.2571 49.5302 74.3804 49.5889 74.5394 49.6443C74.6984 49.6997 74.9012 49.7551 75.1479 49.8106C75.5795 49.9084 75.9348 50.0258 76.2139 50.1627C76.493 50.2997 76.7007 50.4676 76.837 50.6665C76.9733 50.8654 77.0414 51.1067 77.0414 51.3904C77.0414 51.6219 76.9927 51.8339 76.8954 52.0262C76.8013 52.2186 76.6634 52.3849 76.4816 52.5251C76.3031 52.6621 76.089 52.7697 75.8391 52.8479C75.5925 52.9229 75.315 52.9604 75.0067 52.9604C74.5426 52.9604 74.15 52.8773 73.8287 52.711C73.5074 52.5447 73.2641 52.3295 73.0986 52.0654C72.9331 51.8012 72.8503 51.5225 72.8503 51.229H73.7557C73.7687 51.4768 73.8401 51.6741 73.9699 51.8208C74.0997 51.9643 74.2587 52.067 74.4469 52.1289C74.6351 52.1876 74.8217 52.217 75.0067 52.217C75.2533 52.217 75.4594 52.1844 75.6249 52.1192C75.7937 52.0539 75.9218 51.9643 76.0095 51.8502C76.0971 51.736 76.1409 51.6056 76.1409 51.4589Z" fill="white"/>
<path d="M79.1248 45.3499V52.8626H78.2243V45.3499H79.1248ZM78.9106 50.016L78.5358 50.0013C78.539 49.6394 78.5926 49.3052 78.6964 48.9987C78.8003 48.6889 78.9463 48.4199 79.1345 48.1916C79.3228 47.9634 79.5467 47.7873 79.8063 47.6634C80.0691 47.5362 80.3596 47.4727 80.6776 47.4727C80.9372 47.4727 81.1709 47.5085 81.3786 47.5803C81.5862 47.6487 81.7631 47.7596 81.9091 47.9128C82.0584 48.0661 82.172 48.265 82.2499 48.5096C82.3278 48.7509 82.3667 49.0459 82.3667 49.3948V52.8626H81.4613V49.3851C81.4613 49.1079 81.4207 48.8862 81.3396 48.7199C81.2585 48.5503 81.14 48.428 80.9843 48.353C80.8285 48.2748 80.637 48.2357 80.4099 48.2357C80.186 48.2357 79.9815 48.2829 79.7965 48.3775C79.6148 48.4721 79.4574 48.6025 79.3244 48.7688C79.1946 48.9351 79.0923 49.1258 79.0177 49.341C78.9463 49.553 78.9106 49.778 78.9106 50.016Z" fill="white"/>
<path d="M86.8207 51.9578V49.2334C86.8207 49.0247 86.7785 48.8438 86.6941 48.6905C86.613 48.534 86.4897 48.4134 86.3242 48.3286C86.1587 48.2438 85.9542 48.2014 85.7108 48.2014C85.4837 48.2014 85.2841 48.2406 85.1121 48.3188C84.9433 48.3971 84.8103 48.4998 84.7129 48.6269C84.6188 48.7541 84.5718 48.8911 84.5718 49.0378H83.6712C83.6712 48.8487 83.7199 48.6612 83.8173 48.4753C83.9146 48.2895 84.0542 48.1215 84.2359 47.9715C84.4209 47.8183 84.6415 47.6976 84.8979 47.6096C85.1575 47.5183 85.4463 47.4727 85.7644 47.4727C86.1473 47.4727 86.4848 47.5379 86.7769 47.6683C87.0722 47.7987 87.3026 47.996 87.4681 48.2601C87.6368 48.521 87.7212 48.8487 87.7212 49.2432V51.7083C87.7212 51.8844 87.7358 52.0719 87.765 52.2708C87.7975 52.4697 87.8445 52.6409 87.9062 52.7843V52.8626H86.9667C86.9213 52.7583 86.8856 52.6197 86.8596 52.4469C86.8336 52.2708 86.8207 52.1077 86.8207 51.9578ZM86.9764 49.6541L86.9862 50.2899H86.0759C85.8195 50.2899 85.5908 50.3111 85.3896 50.3535C85.1884 50.3926 85.0196 50.4529 84.8833 50.5345C84.747 50.616 84.6432 50.7187 84.5718 50.8426C84.5004 50.9632 84.4647 51.1051 84.4647 51.2681C84.4647 51.4344 84.502 51.586 84.5766 51.723C84.6513 51.8599 84.7632 51.9692 84.9125 52.0507C85.065 52.1289 85.2516 52.1681 85.4723 52.1681C85.7481 52.1681 85.9915 52.1094 86.2025 51.992C86.4134 51.8746 86.5805 51.7311 86.7038 51.5616C86.8304 51.392 86.8985 51.2274 86.9083 51.0676L87.2928 51.5029C87.2701 51.6398 87.2085 51.7915 87.1079 51.9578C87.0073 52.1241 86.8726 52.2838 86.7038 52.4371C86.5383 52.5871 86.3404 52.7126 86.11 52.8137C85.8828 52.9115 85.6264 52.9604 85.3409 52.9604C84.9839 52.9604 84.6708 52.8903 84.4014 52.7501C84.1353 52.6099 83.9276 52.4224 83.7783 52.1876C83.6323 51.9496 83.5593 51.6839 83.5593 51.3904C83.5593 51.1067 83.6145 50.8573 83.7248 50.6421C83.8351 50.4236 83.9941 50.2426 84.2018 50.0992C84.4095 49.9524 84.6594 49.8416 84.9515 49.7666C85.2435 49.6916 85.5697 49.6541 85.9299 49.6541H86.9764Z" fill="white"/>
<path d="M90.0382 48.402V52.8626H89.1377V47.5705H90.0139L90.0382 48.402ZM91.6835 47.5411L91.6786 48.3824C91.604 48.3661 91.5326 48.3563 91.4645 48.353C91.3996 48.3465 91.3249 48.3433 91.2406 48.3433C91.0329 48.3433 90.8495 48.3759 90.6905 48.4411C90.5315 48.5063 90.3968 48.5976 90.2865 48.715C90.1761 48.8324 90.0885 48.9726 90.0236 49.1356C89.962 49.2954 89.9214 49.4715 89.9019 49.6638L89.6488 49.8106C89.6488 49.491 89.6796 49.191 89.7413 48.9106C89.8062 48.6302 89.9052 48.3824 90.0382 48.1672C90.1713 47.9487 90.34 47.7792 90.5445 47.6585C90.7522 47.5346 90.9988 47.4727 91.2844 47.4727C91.3493 47.4727 91.4239 47.4808 91.5083 47.4971C91.5927 47.5102 91.6511 47.5248 91.6835 47.5411Z" fill="white"/>
<path d="M94.6041 52.9604C94.2374 52.9604 93.9048 52.8985 93.6063 52.7746C93.311 52.6474 93.0562 52.4697 92.842 52.2414C92.6311 52.0132 92.4688 51.7425 92.3553 51.4295C92.2417 51.1165 92.1849 50.7741 92.1849 50.4024V50.197C92.1849 49.7666 92.2482 49.3834 92.3747 49.0476C92.5013 48.7085 92.6733 48.4215 92.8907 48.1867C93.1081 47.952 93.3548 47.7743 93.6306 47.6536C93.9064 47.533 94.192 47.4727 94.4873 47.4727C94.8638 47.4727 95.1883 47.5379 95.4609 47.6683C95.7367 47.7987 95.9622 47.9813 96.1375 48.2161C96.3127 48.4476 96.4425 48.7215 96.5269 49.0378C96.6113 49.3508 96.6535 49.6932 96.6535 50.0649V50.4709H92.7203V49.7323H95.7529V49.6638C95.74 49.4291 95.6913 49.2008 95.6069 48.9791C95.5258 48.7574 95.396 48.5748 95.2175 48.4313C95.039 48.2878 94.7956 48.2161 94.4873 48.2161C94.2829 48.2161 94.0947 48.2601 93.9227 48.3482C93.7507 48.4329 93.603 48.5601 93.4797 48.7297C93.3564 48.8992 93.2607 49.1063 93.1925 49.3508C93.1244 49.5954 93.0903 49.8774 93.0903 50.197V50.4024C93.0903 50.6535 93.1244 50.8899 93.1925 51.1116C93.2639 51.3301 93.3661 51.5225 93.4992 51.6888C93.6355 51.855 93.7994 51.9855 93.9908 52.08C94.1855 52.1746 94.4062 52.2219 94.6528 52.2219C94.9708 52.2219 95.2402 52.1567 95.4609 52.0262C95.6815 51.8958 95.8746 51.7214 96.0401 51.5029L96.5853 51.9382C96.4717 52.111 96.3273 52.2757 96.1521 52.4322C95.9768 52.5887 95.761 52.7159 95.5047 52.8137C95.2516 52.9115 94.9514 52.9604 94.6041 52.9604Z" fill="white"/>
<path d="M102.285 52.217C102.5 52.217 102.698 52.173 102.879 52.0849C103.061 51.9969 103.21 51.8762 103.327 51.723C103.444 51.5665 103.51 51.3888 103.527 51.1899H104.383C104.367 51.5029 104.262 51.7947 104.067 52.0654C103.876 52.3327 103.624 52.5496 103.312 52.7159C103.001 52.8789 102.659 52.9604 102.285 52.9604C101.89 52.9604 101.544 52.8903 101.249 52.7501C100.957 52.6099 100.713 52.4175 100.518 52.173C100.327 51.9284 100.183 51.648 100.085 51.3317C99.9911 51.0122 99.944 50.6747 99.944 50.3193V50.1138C99.944 49.7584 99.9911 49.4226 100.085 49.1063C100.183 48.7867 100.327 48.5047 100.518 48.2601C100.713 48.0156 100.957 47.8232 101.249 47.683C101.544 47.5428 101.89 47.4727 102.285 47.4727C102.698 47.4727 103.058 47.5574 103.366 47.727C103.674 47.8933 103.916 48.1215 104.091 48.4117C104.27 48.6987 104.367 49.0247 104.383 49.3899H103.527C103.51 49.1715 103.449 48.9742 103.342 48.7981C103.238 48.6221 103.095 48.4818 102.913 48.3775C102.735 48.2699 102.526 48.2161 102.285 48.2161C102.01 48.2161 101.778 48.2715 101.589 48.3824C101.404 48.49 101.257 48.6367 101.146 48.8226C101.039 49.0052 100.961 49.209 100.913 49.434C100.867 49.6557 100.845 49.8823 100.845 50.1138V50.3193C100.845 50.5508 100.867 50.779 100.913 51.004C100.958 51.229 101.034 51.4328 101.141 51.6154C101.252 51.798 101.399 51.9447 101.584 52.0556C101.773 52.1632 102.006 52.217 102.285 52.217Z" fill="white"/>
<path d="M105.157 50.2752V50.1627C105.157 49.7812 105.213 49.4274 105.323 49.1014C105.433 48.772 105.592 48.4867 105.8 48.2454C106.008 48.0009 106.259 47.8118 106.554 47.6781C106.85 47.5411 107.181 47.4727 107.547 47.4727C107.917 47.4727 108.25 47.5411 108.545 47.6781C108.844 47.8118 109.097 48.0009 109.305 48.2454C109.516 48.4867 109.676 48.772 109.787 49.1014C109.897 49.4274 109.952 49.7812 109.952 50.1627V50.2752C109.952 50.6567 109.897 51.0105 109.787 51.3366C109.676 51.6627 109.516 51.948 109.305 52.1925C109.097 52.4338 108.845 52.6229 108.55 52.7599C108.258 52.8936 107.927 52.9604 107.557 52.9604C107.187 52.9604 106.855 52.8936 106.559 52.7599C106.264 52.6229 106.011 52.4338 105.8 52.1925C105.592 51.948 105.433 51.6627 105.323 51.3366C105.213 51.0105 105.157 50.6567 105.157 50.2752ZM106.058 50.1627V50.2752C106.058 50.5393 106.089 50.7888 106.15 51.0236C106.212 51.2551 106.305 51.4605 106.428 51.6398C106.554 51.8192 106.712 51.961 106.9 52.0654C107.088 52.1664 107.307 52.217 107.557 52.217C107.804 52.217 108.02 52.1664 108.205 52.0654C108.393 51.961 108.549 51.8192 108.672 51.6398C108.795 51.4605 108.888 51.2551 108.949 51.0236C109.014 50.7888 109.047 50.5393 109.047 50.2752V50.1627C109.047 49.9019 109.014 49.6557 108.949 49.4242C108.888 49.1894 108.794 48.9824 108.667 48.803C108.544 48.6204 108.388 48.477 108.2 48.3726C108.015 48.2683 107.797 48.2161 107.547 48.2161C107.301 48.2161 107.083 48.2683 106.895 48.3726C106.71 48.477 106.554 48.6204 106.428 48.803C106.305 48.9824 106.212 49.1894 106.15 49.4242C106.089 49.6557 106.058 49.9019 106.058 50.1627Z" fill="white"/>
<path d="M111.982 48.7003V52.8626H111.081V47.5705H111.933L111.982 48.7003ZM111.768 50.016L111.393 50.0013C111.396 49.6394 111.45 49.3052 111.554 48.9987C111.657 48.6889 111.803 48.4199 111.992 48.1916C112.18 47.9634 112.404 47.7873 112.663 47.6634C112.926 47.5362 113.217 47.4727 113.535 47.4727C113.794 47.4727 114.028 47.5085 114.236 47.5803C114.443 47.6487 114.62 47.7596 114.766 47.9128C114.916 48.0661 115.029 48.265 115.107 48.5096C115.185 48.7509 115.224 49.0459 115.224 49.3948V52.8626H114.318V49.3851C114.318 49.1079 114.278 48.8862 114.197 48.7199C114.116 48.5503 113.997 48.428 113.841 48.353C113.686 48.2748 113.494 48.2357 113.267 48.2357C113.043 48.2357 112.839 48.2829 112.654 48.3775C112.472 48.4721 112.315 48.6025 112.181 48.7688C112.052 48.9351 111.949 49.1258 111.875 49.341C111.803 49.553 111.768 49.778 111.768 50.016Z" fill="white"/>
<path d="M117.794 52.8626H116.893V47.1107C116.893 46.7096 116.971 46.3705 117.127 46.0934C117.283 45.8162 117.505 45.6059 117.794 45.4624C118.083 45.319 118.425 45.2472 118.821 45.2472C119.055 45.2472 119.283 45.2766 119.507 45.3353C119.731 45.3907 119.962 45.4608 120.199 45.5456L120.048 46.3086C119.898 46.2499 119.725 46.1945 119.527 46.1423C119.332 46.0869 119.118 46.0591 118.884 46.0591C118.498 46.0591 118.219 46.1472 118.047 46.3233C117.878 46.4961 117.794 46.7586 117.794 47.1107V52.8626ZM118.87 47.5705V48.265H116.061V47.5705H118.87ZM120.642 47.5705V52.8626H119.741V47.5705H120.642Z" fill="white"/>
<path d="M125.441 51.8355V45.3499H126.347V52.8626H125.519L125.441 51.8355ZM121.897 50.2752V50.1725C121.897 49.7682 121.946 49.4014 122.043 49.072C122.144 48.7394 122.285 48.4541 122.467 48.2161C122.652 47.9781 122.871 47.7955 123.124 47.6683C123.38 47.5379 123.666 47.4727 123.981 47.4727C124.312 47.4727 124.601 47.5313 124.847 47.6487C125.097 47.7629 125.308 47.9308 125.48 48.1525C125.655 48.371 125.793 48.6351 125.894 48.9449C125.994 49.2546 126.064 49.6052 126.103 49.9964V50.4464C126.067 50.8344 125.998 51.1833 125.894 51.4931C125.793 51.8029 125.655 52.067 125.48 52.2855C125.308 52.5039 125.097 52.6719 124.847 52.7892C124.597 52.9034 124.305 52.9604 123.971 52.9604C123.663 52.9604 123.38 52.8936 123.124 52.7599C122.871 52.6262 122.652 52.4387 122.467 52.1974C122.285 51.9561 122.144 51.6724 122.043 51.3464C121.946 51.017 121.897 50.66 121.897 50.2752ZM122.803 50.1725V50.2752C122.803 50.5393 122.829 50.7872 122.881 51.0187C122.936 51.2502 123.02 51.454 123.134 51.6301C123.247 51.8061 123.392 51.9447 123.567 52.0458C123.742 52.1436 123.952 52.1925 124.195 52.1925C124.494 52.1925 124.739 52.1289 124.93 52.0018C125.125 51.8746 125.281 51.7067 125.397 51.498C125.514 51.2893 125.605 51.0627 125.67 50.8181V49.6394C125.631 49.4601 125.574 49.2872 125.5 49.1209C125.428 48.9514 125.334 48.8014 125.217 48.671C125.104 48.5373 124.963 48.4313 124.794 48.353C124.628 48.2748 124.432 48.2357 124.205 48.2357C123.958 48.2357 123.746 48.2878 123.567 48.3922C123.392 48.4933 123.247 48.6335 123.134 48.8128C123.02 48.9889 122.936 49.1943 122.881 49.4291C122.829 49.6606 122.803 49.9084 122.803 50.1725Z" fill="white"/>
<path d="M129.934 52.9604C129.567 52.9604 129.235 52.8985 128.936 52.7746C128.641 52.6474 128.386 52.4697 128.172 52.2414C127.961 52.0132 127.799 51.7425 127.685 51.4295C127.572 51.1165 127.515 50.7741 127.515 50.4024V50.197C127.515 49.7666 127.578 49.3834 127.705 49.0476C127.831 48.7085 128.003 48.4215 128.221 48.1867C128.438 47.952 128.685 47.7743 128.961 47.6536C129.236 47.533 129.522 47.4727 129.817 47.4727C130.194 47.4727 130.518 47.5379 130.791 47.6683C131.067 47.7987 131.292 47.9813 131.467 48.2161C131.643 48.4476 131.772 48.7215 131.857 49.0378C131.941 49.3508 131.983 49.6932 131.983 50.0649V50.4709H128.05V49.7323H131.083V49.6638C131.07 49.4291 131.021 49.2008 130.937 48.9791C130.856 48.7574 130.726 48.5748 130.547 48.4313C130.369 48.2878 130.126 48.2161 129.817 48.2161C129.613 48.2161 129.425 48.2601 129.253 48.3482C129.081 48.4329 128.933 48.5601 128.81 48.7297C128.686 48.8992 128.591 49.1063 128.522 49.3508C128.454 49.5954 128.42 49.8774 128.42 50.197V50.4024C128.42 50.6535 128.454 50.8899 128.522 51.1116C128.594 51.3301 128.696 51.5225 128.829 51.6888C128.965 51.855 129.129 51.9855 129.321 52.08C129.515 52.1746 129.736 52.2219 129.983 52.2219C130.301 52.2219 130.57 52.1567 130.791 52.0262C131.011 51.8958 131.205 51.7214 131.37 51.5029L131.915 51.9382C131.802 52.111 131.657 52.2757 131.482 52.4322C131.307 52.5887 131.091 52.7159 130.835 52.8137C130.581 52.9115 130.281 52.9604 129.934 52.9604Z" fill="white"/>
<path d="M133.935 48.7003V52.8626H133.035V47.5705H133.887L133.935 48.7003ZM133.721 50.016L133.346 50.0013C133.35 49.6394 133.403 49.3052 133.507 48.9987C133.611 48.6889 133.757 48.4199 133.945 48.1916C134.133 47.9634 134.357 47.7873 134.617 47.6634C134.88 47.5362 135.17 47.4727 135.488 47.4727C135.748 47.4727 135.981 47.5085 136.189 47.5803C136.397 47.6487 136.574 47.7596 136.72 47.9128C136.869 48.0661 136.983 48.265 137.06 48.5096C137.138 48.7509 137.177 49.0459 137.177 49.3948V52.8626H136.272V49.3851C136.272 49.1079 136.231 48.8862 136.15 48.7199C136.069 48.5503 135.951 48.428 135.795 48.353C135.639 48.2748 135.448 48.2357 135.22 48.2357C134.996 48.2357 134.792 48.2829 134.607 48.3775C134.425 48.4721 134.268 48.6025 134.135 48.7688C134.005 48.9351 133.903 49.1258 133.828 49.341C133.757 49.553 133.721 49.778 133.721 50.016Z" fill="white"/>
<path d="M140.75 47.5705V48.265H137.903V47.5705H140.75ZM138.866 46.2841H139.767V51.5518C139.767 51.7311 139.794 51.8665 139.85 51.9578C139.905 52.0491 139.976 52.1094 140.064 52.1387C140.151 52.1681 140.246 52.1827 140.346 52.1827C140.421 52.1827 140.499 52.1762 140.58 52.1632C140.664 52.1469 140.727 52.1338 140.77 52.1241L140.774 52.8626C140.703 52.8854 140.609 52.9066 140.492 52.9262C140.379 52.949 140.241 52.9604 140.078 52.9604C139.858 52.9604 139.655 52.9164 139.47 52.8284C139.285 52.7403 139.137 52.5936 139.027 52.3882C138.92 52.1795 138.866 51.8991 138.866 51.5469V46.2841Z" fill="white"/>
<path d="M142.785 47.5705V52.8626H141.879V47.5705H142.785ZM141.811 46.1667C141.811 46.02 141.855 45.8961 141.943 45.795C142.034 45.6939 142.167 45.6434 142.342 45.6434C142.514 45.6434 142.645 45.6939 142.736 45.795C142.83 45.8961 142.877 46.02 142.877 46.1667C142.877 46.3069 142.83 46.4276 142.736 46.5287C142.645 46.6265 142.514 46.6754 142.342 46.6754C142.167 46.6754 142.034 46.6265 141.943 46.5287C141.855 46.4276 141.811 46.3069 141.811 46.1667Z" fill="white"/>
<path d="M147.336 51.9578V49.2334C147.336 49.0247 147.294 48.8438 147.21 48.6905C147.128 48.534 147.005 48.4134 146.84 48.3286C146.674 48.2438 146.47 48.2014 146.226 48.2014C145.999 48.2014 145.8 48.2406 145.628 48.3188C145.459 48.3971 145.326 48.4998 145.228 48.6269C145.134 48.7541 145.087 48.8911 145.087 49.0378H144.187C144.187 48.8487 144.235 48.6612 144.333 48.4753C144.43 48.2895 144.57 48.1215 144.751 47.9715C144.936 47.8183 145.157 47.6976 145.413 47.6096C145.673 47.5183 145.962 47.4727 146.28 47.4727C146.663 47.4727 147 47.5379 147.292 47.6683C147.588 47.7987 147.818 47.996 147.984 48.2601C148.152 48.521 148.237 48.8487 148.237 49.2432V51.7083C148.237 51.8844 148.251 52.0719 148.281 52.2708C148.313 52.4697 148.36 52.6409 148.422 52.7843V52.8626H147.482C147.437 52.7583 147.401 52.6197 147.375 52.4469C147.349 52.2708 147.336 52.1077 147.336 51.9578ZM147.492 49.6541L147.502 50.2899H146.591C146.335 50.2899 146.106 50.3111 145.905 50.3535C145.704 50.3926 145.535 50.4529 145.399 50.5345C145.263 50.616 145.159 50.7187 145.087 50.8426C145.016 50.9632 144.98 51.1051 144.98 51.2681C144.98 51.4344 145.018 51.586 145.092 51.723C145.167 51.8599 145.279 51.9692 145.428 52.0507C145.581 52.1289 145.767 52.1681 145.988 52.1681C146.264 52.1681 146.507 52.1094 146.718 51.992C146.929 51.8746 147.096 51.7311 147.219 51.5616C147.346 51.392 147.414 51.2274 147.424 51.0676L147.808 51.5029C147.786 51.6398 147.724 51.7915 147.623 51.9578C147.523 52.1241 147.388 52.2838 147.219 52.4371C147.054 52.5871 146.856 52.7126 146.625 52.8137C146.398 52.9115 146.142 52.9604 145.856 52.9604C145.499 52.9604 145.186 52.8903 144.917 52.7501C144.651 52.6099 144.443 52.4224 144.294 52.1876C144.148 51.9496 144.075 51.6839 144.075 51.3904C144.075 51.1067 144.13 50.8573 144.24 50.6421C144.351 50.4236 144.51 50.2426 144.717 50.0992C144.925 49.9524 145.175 49.8416 145.467 49.7666C145.759 49.6916 146.085 49.6541 146.445 49.6541H147.492Z" fill="white"/>
<path d="M150.632 45.3499V52.8626H149.726V45.3499H150.632Z" fill="white"/>
<path d="M155.529 47.5705V52.8626H154.623V47.5705H155.529ZM154.555 46.1667C154.555 46.02 154.599 45.8961 154.686 45.795C154.777 45.6939 154.91 45.6434 155.086 45.6434C155.258 45.6434 155.389 45.6939 155.48 45.795C155.574 45.8961 155.621 46.02 155.621 46.1667C155.621 46.3069 155.574 46.4276 155.48 46.5287C155.389 46.6265 155.258 46.6754 155.086 46.6754C154.91 46.6754 154.777 46.6265 154.686 46.5287C154.599 46.4276 154.555 46.3069 154.555 46.1667Z" fill="white"/>
<path d="M157.875 48.7003V52.8626H156.974V47.5705H157.826L157.875 48.7003ZM157.661 50.016L157.286 50.0013C157.289 49.6394 157.343 49.3052 157.446 48.9987C157.55 48.6889 157.696 48.4199 157.885 48.1916C158.073 47.9634 158.297 47.7873 158.556 47.6634C158.819 47.5362 159.11 47.4727 159.428 47.4727C159.687 47.4727 159.921 47.5085 160.129 47.5803C160.336 47.6487 160.513 47.7596 160.659 47.9128C160.808 48.0661 160.922 48.265 161 48.5096C161.078 48.7509 161.117 49.0459 161.117 49.3948V52.8626H160.211V49.3851C160.211 49.1079 160.171 48.8862 160.09 48.7199C160.008 48.5503 159.89 48.428 159.734 48.353C159.578 48.2748 159.387 48.2357 159.16 48.2357C158.936 48.2357 158.732 48.2829 158.547 48.3775C158.365 48.4721 158.207 48.6025 158.074 48.7688C157.945 48.9351 157.842 49.1258 157.768 49.341C157.696 49.553 157.661 49.778 157.661 50.016Z" fill="white"/>
<path d="M163.828 52.8626H162.927V47.0129C162.927 46.6314 162.996 46.3102 163.132 46.0494C163.271 45.7852 163.471 45.5863 163.731 45.4526C163.99 45.3157 164.299 45.2472 164.656 45.2472C164.759 45.2472 164.863 45.2537 164.967 45.2668C165.074 45.2798 165.178 45.2994 165.279 45.3255L165.23 46.064C165.162 46.0477 165.084 46.0363 164.996 46.0298C164.912 46.0233 164.828 46.02 164.743 46.02C164.552 46.02 164.386 46.0591 164.247 46.1374C164.11 46.2124 164.006 46.3233 163.935 46.47C163.864 46.6167 163.828 46.7977 163.828 47.0129V52.8626ZM164.948 47.5705V48.265H162.095V47.5705H164.948Z" fill="white"/>
<path d="M165.712 50.2752V50.1627C165.712 49.7812 165.767 49.4274 165.877 49.1014C165.988 48.772 166.147 48.4867 166.354 48.2454C166.562 48.0009 166.814 47.8118 167.109 47.6781C167.404 47.5411 167.735 47.4727 168.102 47.4727C168.472 47.4727 168.804 47.5411 169.1 47.6781C169.398 47.8118 169.651 48.0009 169.859 48.2454C170.07 48.4867 170.231 48.772 170.341 49.1014C170.451 49.4274 170.507 49.7812 170.507 50.1627V50.2752C170.507 50.6567 170.451 51.0105 170.341 51.3366C170.231 51.6627 170.07 51.948 169.859 52.1925C169.651 52.4338 169.4 52.6229 169.105 52.7599C168.813 52.8936 168.482 52.9604 168.112 52.9604C167.742 52.9604 167.409 52.8936 167.114 52.7599C166.818 52.6229 166.565 52.4338 166.354 52.1925C166.147 51.948 165.988 51.6627 165.877 51.3366C165.767 51.0105 165.712 50.6567 165.712 50.2752ZM166.612 50.1627V50.2752C166.612 50.5393 166.643 50.7888 166.705 51.0236C166.766 51.2551 166.859 51.4605 166.982 51.6398C167.109 51.8192 167.266 51.961 167.454 52.0654C167.643 52.1664 167.862 52.217 168.112 52.217C168.358 52.217 168.574 52.1664 168.759 52.0654C168.947 51.961 169.103 51.8192 169.226 51.6398C169.35 51.4605 169.442 51.2551 169.504 51.0236C169.569 50.7888 169.601 50.5393 169.601 50.2752V50.1627C169.601 49.9019 169.569 49.6557 169.504 49.4242C169.442 49.1894 169.348 48.9824 169.221 48.803C169.098 48.6204 168.942 48.477 168.754 48.3726C168.569 48.2683 168.352 48.2161 168.102 48.2161C167.855 48.2161 167.638 48.2683 167.45 48.3726C167.265 48.477 167.109 48.6204 166.982 48.803C166.859 48.9824 166.766 49.1894 166.705 49.4242C166.643 49.6557 166.612 49.9019 166.612 50.1627Z" fill="white"/>
<path d="M172.536 48.402V52.8626H171.636V47.5705H172.512L172.536 48.402ZM174.182 47.5411L174.177 48.3824C174.102 48.3661 174.031 48.3563 173.963 48.353C173.898 48.3465 173.823 48.3433 173.739 48.3433C173.531 48.3433 173.348 48.3759 173.189 48.4411C173.03 48.5063 172.895 48.5976 172.785 48.715C172.674 48.8324 172.587 48.9726 172.522 49.1356C172.46 49.2954 172.42 49.4715 172.4 49.6638L172.147 49.8106C172.147 49.491 172.178 49.191 172.239 48.9106C172.304 48.6302 172.403 48.3824 172.536 48.1672C172.669 47.9487 172.838 47.7792 173.043 47.6585C173.25 47.5346 173.497 47.4727 173.782 47.4727C173.847 47.4727 173.922 47.4808 174.006 47.4971C174.091 47.5102 174.149 47.5248 174.182 47.5411Z" fill="white"/>
<path d="M175.91 48.6221V52.8626H175.004V47.5705H175.861L175.91 48.6221ZM175.725 50.016L175.306 50.0013C175.309 49.6394 175.356 49.3052 175.447 48.9987C175.538 48.6889 175.673 48.4199 175.851 48.1916C176.03 47.9634 176.252 47.7873 176.518 47.6634C176.784 47.5362 177.093 47.4727 177.443 47.4727C177.69 47.4727 177.917 47.5085 178.124 47.5803C178.332 47.6487 178.512 47.758 178.665 47.908C178.817 48.0579 178.936 48.2503 179.02 48.4851C179.105 48.7199 179.147 49.0036 179.147 49.3361V52.8626H178.246V49.3802C178.246 49.103 178.199 48.8813 178.105 48.715C178.014 48.5487 177.884 48.428 177.716 48.353C177.547 48.2748 177.349 48.2357 177.122 48.2357C176.856 48.2357 176.633 48.2829 176.455 48.3775C176.276 48.4721 176.134 48.6025 176.027 48.7688C175.919 48.9351 175.842 49.1258 175.793 49.341C175.747 49.553 175.725 49.778 175.725 50.016ZM179.137 49.5171L178.533 49.703C178.537 49.4128 178.584 49.134 178.675 48.8666C178.769 48.5992 178.903 48.3612 179.079 48.1525C179.257 47.9438 179.476 47.7792 179.736 47.6585C179.995 47.5346 180.292 47.4727 180.627 47.4727C180.909 47.4727 181.159 47.5102 181.376 47.5851C181.597 47.6601 181.782 47.7759 181.931 47.9324C182.084 48.0857 182.199 48.2829 182.277 48.5242C182.355 48.7655 182.393 49.0525 182.393 49.3851V52.8626H181.488V49.3753C181.488 49.0786 181.441 48.8487 181.347 48.6856C181.256 48.5193 181.126 48.4036 180.958 48.3384C180.792 48.2699 180.594 48.2357 180.364 48.2357C180.166 48.2357 179.99 48.2699 179.838 48.3384C179.685 48.4068 179.557 48.5014 179.453 48.6221C179.35 48.7394 179.27 48.8748 179.215 49.028C179.163 49.1813 179.137 49.3443 179.137 49.5171Z" fill="white"/>
<path d="M186.862 51.9578V49.2334C186.862 49.0247 186.82 48.8438 186.736 48.6905C186.654 48.534 186.531 48.4134 186.366 48.3286C186.2 48.2438 185.996 48.2014 185.752 48.2014C185.525 48.2014 185.325 48.2406 185.153 48.3188C184.985 48.3971 184.852 48.4998 184.754 48.6269C184.66 48.7541 184.613 48.8911 184.613 49.0378H183.713C183.713 48.8487 183.761 48.6612 183.859 48.4753C183.956 48.2895 184.096 48.1215 184.277 47.9715C184.462 47.8183 184.683 47.6976 184.939 47.6096C185.199 47.5183 185.488 47.4727 185.806 47.4727C186.189 47.4727 186.526 47.5379 186.818 47.6683C187.114 47.7987 187.344 47.996 187.509 48.2601C187.678 48.521 187.763 48.8487 187.763 49.2432V51.7083C187.763 51.8844 187.777 52.0719 187.806 52.2708C187.839 52.4697 187.886 52.6409 187.948 52.7843V52.8626H187.008C186.963 52.7583 186.927 52.6197 186.901 52.4469C186.875 52.2708 186.862 52.1077 186.862 51.9578ZM187.018 49.6541L187.028 50.2899H186.117C185.861 50.2899 185.632 50.3111 185.431 50.3535C185.23 50.3926 185.061 50.4529 184.925 50.5345C184.788 50.616 184.685 50.7187 184.613 50.8426C184.542 50.9632 184.506 51.1051 184.506 51.2681C184.506 51.4344 184.543 51.586 184.618 51.723C184.693 51.8599 184.805 51.9692 184.954 52.0507C185.106 52.1289 185.293 52.1681 185.514 52.1681C185.79 52.1681 186.033 52.1094 186.244 51.992C186.455 51.8746 186.622 51.7311 186.745 51.5616C186.872 51.392 186.94 51.2274 186.95 51.0676L187.334 51.5029C187.312 51.6398 187.25 51.7915 187.149 51.9578C187.049 52.1241 186.914 52.2838 186.745 52.4371C186.58 52.5871 186.382 52.7126 186.151 52.8137C185.924 52.9115 185.668 52.9604 185.382 52.9604C185.025 52.9604 184.712 52.8903 184.443 52.7501C184.177 52.6099 183.969 52.4224 183.82 52.1876C183.674 51.9496 183.601 51.6839 183.601 51.3904C183.601 51.1067 183.656 50.8573 183.766 50.6421C183.877 50.4236 184.036 50.2426 184.243 50.0992C184.451 49.9524 184.701 49.8416 184.993 49.7666C185.285 49.6916 185.611 49.6541 185.971 49.6541H187.018Z" fill="white"/>
<path d="M191.384 47.5705V48.265H188.537V47.5705H191.384ZM189.5 46.2841H190.401V51.5518C190.401 51.7311 190.428 51.8665 190.484 51.9578C190.539 52.0491 190.61 52.1094 190.698 52.1387C190.785 52.1681 190.88 52.1827 190.98 52.1827C191.055 52.1827 191.133 52.1762 191.214 52.1632C191.298 52.1469 191.361 52.1338 191.404 52.1241L191.409 52.8626C191.337 52.8854 191.243 52.9066 191.126 52.9262C191.013 52.949 190.875 52.9604 190.712 52.9604C190.492 52.9604 190.289 52.9164 190.104 52.8284C189.919 52.7403 189.771 52.5936 189.661 52.3882C189.554 52.1795 189.5 51.8991 189.5 51.5469V46.2841Z" fill="white"/>
<path d="M193.419 47.5705V52.8626H192.513V47.5705H193.419ZM192.445 46.1667C192.445 46.02 192.489 45.8961 192.577 45.795C192.668 45.6939 192.801 45.6434 192.976 45.6434C193.148 45.6434 193.279 45.6939 193.37 45.795C193.464 45.8961 193.511 46.02 193.511 46.1667C193.511 46.3069 193.464 46.4276 193.37 46.5287C193.279 46.6265 193.148 46.6754 192.976 46.6754C192.801 46.6754 192.668 46.6265 192.577 46.5287C192.489 46.4276 192.445 46.3069 192.445 46.1667Z" fill="white"/>
<path d="M194.626 50.2752V50.1627C194.626 49.7812 194.681 49.4274 194.792 49.1014C194.902 48.772 195.061 48.4867 195.269 48.2454C195.476 48.0009 195.728 47.8118 196.023 47.6781C196.318 47.5411 196.649 47.4727 197.016 47.4727C197.386 47.4727 197.719 47.5411 198.014 47.6781C198.313 47.8118 198.566 48.0009 198.773 48.2454C198.984 48.4867 199.145 48.772 199.255 49.1014C199.366 49.4274 199.421 49.7812 199.421 50.1627V50.2752C199.421 50.6567 199.366 51.0105 199.255 51.3366C199.145 51.6627 198.984 51.948 198.773 52.1925C198.566 52.4338 198.314 52.6229 198.019 52.7599C197.727 52.8936 197.396 52.9604 197.026 52.9604C196.656 52.9604 196.323 52.8936 196.028 52.7599C195.733 52.6229 195.48 52.4338 195.269 52.1925C195.061 51.948 194.902 51.6627 194.792 51.3366C194.681 51.0105 194.626 50.6567 194.626 50.2752ZM195.527 50.1627V50.2752C195.527 50.5393 195.557 50.7888 195.619 51.0236C195.681 51.2551 195.773 51.4605 195.897 51.6398C196.023 51.8192 196.18 51.961 196.369 52.0654C196.557 52.1664 196.776 52.217 197.026 52.217C197.272 52.217 197.488 52.1664 197.673 52.0654C197.861 51.961 198.017 51.8192 198.141 51.6398C198.264 51.4605 198.356 51.2551 198.418 51.0236C198.483 50.7888 198.515 50.5393 198.515 50.2752V50.1627C198.515 49.9019 198.483 49.6557 198.418 49.4242C198.356 49.1894 198.262 48.9824 198.136 48.803C198.012 48.6204 197.857 48.477 197.668 48.3726C197.483 48.2683 197.266 48.2161 197.016 48.2161C196.769 48.2161 196.552 48.2683 196.364 48.3726C196.179 48.477 196.023 48.6204 195.897 48.803C195.773 48.9824 195.681 49.1894 195.619 49.4242C195.557 49.6557 195.527 49.9019 195.527 50.1627Z" fill="white"/>
<path d="M201.451 48.7003V52.8626H200.55V47.5705H201.402L201.451 48.7003ZM201.236 50.016L200.862 50.0013C200.865 49.6394 200.918 49.3052 201.022 48.9987C201.126 48.6889 201.272 48.4199 201.46 48.1916C201.649 47.9634 201.872 47.7873 202.132 47.6634C202.395 47.5362 202.685 47.4727 203.003 47.4727C203.263 47.4727 203.497 47.5085 203.704 47.5803C203.912 47.6487 204.089 47.7596 204.235 47.9128C204.384 48.0661 204.498 48.265 204.576 48.5096C204.654 48.7509 204.693 49.0459 204.693 49.3948V52.8626H203.787V49.3851C203.787 49.1079 203.747 48.8862 203.665 48.7199C203.584 48.5503 203.466 48.428 203.31 48.353C203.154 48.2748 202.963 48.2357 202.736 48.2357C202.512 48.2357 202.307 48.2829 202.122 48.3775C201.941 48.4721 201.783 48.6025 201.65 48.7688C201.52 48.9351 201.418 49.1258 201.344 49.341C201.272 49.553 201.236 49.778 201.236 50.016Z" fill="white"/>
</g>
</g>
</svg>
